HIERARCHY
ROOT joint_Root
{
	OFFSET 0.0 0.0 0.0
	CHANNELS 6 Xposition Yposition Zposition Zrotation Xrotation Yrotation 
	JOINT Hips
	{
		OFFSET -0.726466 93.3139 -2.00062
		CHANNELS 6 Xposition Yposition Zposition Zrotation Xrotation Yrotation 
		JOINT Spine
		{
			OFFSET 15.7357 0.0 0.0
			CHANNELS 6 Xposition Yposition Zposition Zrotation Xrotation Yrotation 
			JOINT Chest
			{
				OFFSET 8.98455 -0.406207 0.0
				CHANNELS 6 Xposition Yposition Zposition Zrotation Xrotation Yrotation 
				JOINT Neck
				{
					OFFSET 16.3773 0.0 0.0
					CHANNELS 6 Xposition Yposition Zposition Zrotation Xrotation Yrotation 
					JOINT Head
					{
						OFFSET 6.45672 0.0 0.0
						CHANNELS 6 Xposition Yposition Zposition Zrotation Xrotation Yrotation 
						End Site
						{
							OFFSET 0.0 0.0 0.0
						}
					}
				}
				JOINT Shoulder_L
				{
					OFFSET 12.9942 -0.242716 4.98039
					CHANNELS 6 Xposition Yposition Zposition Zrotation Xrotation Yrotation 
					JOINT UpperArm_L
					{
						OFFSET 5.34809 0.0 0.0
						CHANNELS 6 Xposition Yposition Zposition Zrotation Xrotation Yrotation 
						JOINT LowerArm_L
						{
							OFFSET 24.3286 1.87007e-05 0.0
							CHANNELS 6 Xposition Yposition Zposition Zrotation Xrotation Yrotation 
							JOINT Hand_L
							{
								OFFSET 22.2916 0.0 0.0
								CHANNELS 6 Xposition Yposition Zposition Zrotation Xrotation Yrotation 
								End Site
								{
									OFFSET 0.0 0.0 0.0
								}
							}
						}
					}
				}
				JOINT Shoulder_R
				{
					OFFSET 12.9945 -0.242716 -4.98039
					CHANNELS 6 Xposition Yposition Zposition Zrotation Xrotation Yrotation 
					JOINT UpperArm_R
					{
						OFFSET -5.34813 0.0 0.0
						CHANNELS 6 Xposition Yposition Zposition Zrotation Xrotation Yrotation 
						JOINT LowerArm_R
						{
							OFFSET -24.3289 0.000322201 0.0
							CHANNELS 6 Xposition Yposition Zposition Zrotation Xrotation Yrotation 
							JOINT Hand_R
							{
								OFFSET -22.2915 -0.000108084 0.0
								CHANNELS 6 Xposition Yposition Zposition Zrotation Xrotation Yrotation 
								End Site
								{
									OFFSET 0.0 0.0 0.0
								}
							}
						}
					}
				}
			}
		}
		JOINT UpperLeg_L
		{
			OFFSET -2.19248 -6.46944 0.0
			CHANNELS 6 Xposition Yposition Zposition Zrotation Xrotation Yrotation 
			JOINT LowerLeg_L
			{
				OFFSET 39.0811 0.0 -1.23785e-05
				CHANNELS 6 Xposition Yposition Zposition Zrotation Xrotation Yrotation 
				JOINT Foot_L
				{
					OFFSET 40.9854 0.0 -1.26872e-05
					CHANNELS 6 Xposition Yposition Zposition Zrotation Xrotation Yrotation 
					JOINT Toes_L
					{
						OFFSET 11.7543 0.0 0.0
						CHANNELS 6 Xposition Yposition Zposition Zrotation Xrotation Yrotation 
						End Site
						{
							OFFSET 0.0 0.0 0.0
						}
					}
				}
			}
		}
		JOINT UpperLeg_R
		{
			OFFSET -2.19251 6.46944 0.0
			CHANNELS 6 Xposition Yposition Zposition Zrotation Xrotation Yrotation 
			JOINT LowerLeg_R
			{
				OFFSET -39.0811 -0.00228153 -0.0401928
				CHANNELS 6 Xposition Yposition Zposition Zrotation Xrotation Yrotation 
				JOINT Foot_R
				{
					OFFSET -40.9854 0.0 0.0
					CHANNELS 6 Xposition Yposition Zposition Zrotation Xrotation Yrotation 
					JOINT Toes_R
					{
						OFFSET -11.7543 0.0 0.0
						CHANNELS 6 Xposition Yposition Zposition Zrotation Xrotation Yrotation 
						End Site
						{
							OFFSET 0.0 0.0 0.0
						}
					}
				}
			}
		}
	}
}
MOTION
Frames:	6
Frame Time:	0.0333333
0.000000 0.000000 0.000000 0.000000 0.000000 -0.000000 -0.753499 92.000900 -1.206790 87.630200 -1.806620 3.362730 15.735700 0.000005 -0.000001 87.681100 85.841600 -87.081700 8.984550 -0.406207 -0.000000 0.546120 -0.374144 1.199730 16.377300 -0.000001 -0.000001 0.332502 -3.359950 1.346640 6.456720 -0.000001 -0.000000 2.097350 -2.299820 -3.130040 12.994200 -0.242716 4.980390 -89.757500 -0.759618 -72.297600 5.348090 -0.000007 -0.000001 -69.023300 32.590900 -12.961700 24.328600 0.000019 0.000005 1.875290 4.472040 -22.777500 22.291600 -0.000001 0.000005 6.048330 5.503050 -6.653330 12.994500 -0.242716 -4.980390 88.008800 5.645910 -70.536500 -5.348130 -0.000001 -0.000004 -68.280800 30.316800 -13.118900 -24.328900 0.000322 -0.000009 0.870481 2.829190 -17.130600 -22.291500 -0.000108 -0.000004 7.805100 5.418580 -3.550640 -2.192480 -6.469440 -0.000000 -169.184000 -14.673700 -2.104590 39.081100 -0.000007 -0.000012 -0.195020 0.483058 21.985100 40.985400 -0.000006 -0.000013 -5.836450 2.644550 -64.790700 11.754300 -0.000000 0.000003 -0.000053 -0.000592 -16.600500 -2.192510 6.469440 -0.000001 174.414000 19.332800 179.738000 -39.081100 -0.002282 -0.040193 -0.056403 0.171887 19.160900 -40.985400 0.000008 0.000006 -3.815360 2.872540 -63.482000 -11.754300 -0.000006 -0.000006 -0.005290 -0.064248 -19.187400
0.000000 0.000000 0.000000 0.000000 0.000000 -0.000000 -0.748846 92.027700 -1.219890 87.618400 -1.859850 3.298710 15.735700 0.000005 -0.000001 87.914600 85.850200 -87.325200 8.984550 -0.406207 -0.000000 0.530012 -0.339113 1.179410 16.377300 -0.000001 -0.000001 0.148546 -3.291230 1.348600 6.456720 -0.000001 -0.000000 1.784840 -2.299740 -2.922750 12.994200 -0.242716 4.980390 -89.644400 -1.082120 -71.807800 5.348090 -0.000007 -0.000001 -69.992300 27.406600 -12.484400 24.328600 0.000019 0.000005 2.043410 4.944140 -22.488200 22.291600 -0.000001 0.000005 10.361900 5.501980 -6.619730 12.994500 -0.242716 -4.980390 88.095000 5.272400 -70.101700 -5.348130 -0.000001 -0.000004 -68.826300 26.191100 -13.288000 -24.328900 0.000322 -0.000009 0.778134 2.676820 -16.233600 -22.291500 -0.000108 -0.000004 10.066400 5.411920 -3.334930 -2.192480 -6.469440 -0.000000 -169.205000 -14.696000 -2.081240 39.081100 -0.000007 -0.000012 -0.190945 0.477070 21.813700 40.985400 -0.000006 -0.000013 -5.841190 2.572790 -64.706300 11.754300 -0.000000 0.000003 -0.000044 -0.000505 -16.597200 -2.192510 6.469440 -0.000001 174.519000 19.266600 179.652000 -39.081100 -0.002282 -0.040193 -0.046496 0.143745 19.115000 -40.985400 0.000008 0.000006 -3.393250 2.740990 -63.469600 -11.754300 -0.000006 -0.000006 -0.005279 -0.064137 -19.182900
0.000000 0.000000 0.000000 0.000000 0.000000 -0.000000 -0.741585 92.039600 -1.256140 87.656800 -1.901960 3.172750 15.735700 0.000005 -0.000001 88.038200 85.902600 -87.480800 8.984550 -0.406207 -0.000000 0.425768 -0.316147 1.115080 16.377300 -0.000001 -0.000001 0.152796 -3.277900 1.383340 6.456720 -0.000001 -0.000000 1.371910 -2.297090 -2.737560 12.994200 -0.242716 4.980390 -89.483100 -1.537500 -71.416000 5.348090 -0.000007 -0.000001 -70.232800 20.570600 -12.809600 24.328600 0.000019 0.000005 1.494640 3.945730 -20.754000 22.291600 -0.000001 0.000005 16.072500 5.501130 -6.589890 12.994500 -0.242716 -4.980390 88.245700 4.756710 -69.727900 -5.348130 -0.000001 -0.000004 -68.843500 20.567600 -14.260900 -24.328900 0.000322 -0.000009 0.331338 1.353620 -13.772200 -22.291500 -0.000108 -0.000004 13.149700 5.390430 -2.641200 -2.192480 -6.469440 -0.000000 -169.280000 -14.759800 -2.179550 39.081100 -0.000007 -0.000012 -0.188496 0.473230 21.718600 40.985400 -0.000006 -0.000013 -5.830350 2.594250 -64.637000 11.754300 -0.000000 0.000003 -0.000046 -0.000528 -16.598100 -2.192510 6.469440 -0.000001 174.554000 19.236000 179.475000 -39.081100 -0.002282 -0.040193 -0.042754 0.132964 19.113200 -40.985400 0.000008 0.000006 -3.352030 2.724800 -63.437600 -11.754300 -0.000006 -0.000006 -0.005540 -0.066597 -19.283200
0.000000 0.000000 0.000000 0.000000 0.000000 -0.000000 -0.749880 92.049700 -1.278070 87.657600 -1.934760 3.208800 15.735700 0.000005 -0.000001 87.958000 85.911300 -87.426500 8.984550 -0.406207 -0.000000 0.407965 -0.325413 1.063420 16.377300 -0.000001 -0.000001 0.113204 -3.215290 1.377860 6.456720 -0.000001 -0.000000 1.143240 -2.317420 -2.456990 12.994200 -0.242716 4.980390 -89.275500 -2.122070 -71.144700 5.348090 -0.000007 -0.000001 -69.007500 13.514800 -14.231800 24.328600 0.000019 0.000005 0.457582 1.416800 -17.876000 22.291600 -0.000001 0.000005 19.585100 5.489720 -6.130540 12.994500 -0.242716 -4.980390 88.479600 4.086450 -69.571400 -5.348130 -0.000001 -0.000004 -68.057000 13.678600 -16.116900 -24.328900 0.000322 -0.000009 -0.024127 -0.129277 -10.345800 -22.291500 -0.000108 -0.000004 14.470800 5.334130 -0.903398 -2.192480 -6.469440 -0.000000 -169.267000 -14.765500 -2.107260 39.081100 -0.000007 -0.000012 -0.188033 0.473932 21.641000 40.985400 -0.000006 -0.000013 -5.840100 2.571110 -64.590800 11.754300 -0.000000 0.000003 -0.000046 -0.000530 -16.598200 -2.192510 6.469440 -0.000001 174.547000 19.259500 179.524000 -39.081100 -0.002282 -0.040193 -0.042140 0.131601 19.058200 -40.985400 0.000008 0.000006 -3.307350 2.769290 -63.396600 -11.754300 -0.000006 -0.000006 -0.005233 -0.063703 -19.165200
0.000000 0.000000 0.000000 0.000000 0.000000 -0.000000 -0.765136 92.034700 -1.295830 87.594700 -1.989480 3.216720 15.735700 0.000005 -0.000001 87.976200 85.957400 -87.441700 8.984550 -0.406207 -0.000000 0.315815 -0.320190 1.068970 16.377300 -0.000001 -0.000001 0.027796 -3.171420 1.383820 6.456720 -0.000001 -0.000000 0.939065 -2.387710 -2.277110 12.994200 -0.242716 4.980390 -89.015700 -2.845700 -70.912100 5.348090 -0.000007 -0.000001 -67.030000 5.637020 -16.244300 24.328600 0.000019 0.000005 0.109922 0.423527 -14.498400 22.291600 -0.000001 0.000005 20.210800 5.464960 -5.180890 12.994500 -0.242716 -4.980390 88.752900 3.307690 -69.327500 -5.348130 -0.000001 -0.000004 -66.588900 5.862500 -18.653900 -24.328900 0.000322 -0.000009 -0.133641 -1.128360 -6.711230 -22.291500 -0.000108 -0.000004 13.904300 5.245530 1.553000 -2.192480 -6.469440 -0.000000 -169.190000 -14.829700 -2.182280 39.081100 -0.000007 -0.000012 -0.190446 0.475884 21.811300 40.985400 -0.000006 -0.000013 -5.847990 2.549040 -64.661300 11.754300 -0.000000 0.000003 -0.000048 -0.000542 -16.598600 -2.192510 6.469440 -0.000001 174.592000 19.207000 179.517000 -39.081100 -0.002282 -0.040193 -0.047054 0.145828 19.057900 -40.985400 0.000008 0.000006 -3.526140 2.843280 -63.365700 -11.754300 -0.000006 -0.000006 -0.005209 -0.063475 -19.155900
0.000000 0.000000 0.000000 0.000000 0.000000 -0.000000 -0.778429 92.058200 -1.305990 87.584800 -2.024640 3.111480 15.735700 0.000005 -0.000001 88.032600 86.038000 -87.510700 8.984550 -0.406207 -0.000000 0.154821 -0.306621 1.043650 16.377300 -0.000001 -0.000001 -0.178789 -3.123000 1.418470 6.456720 -0.000001 -0.000000 0.627710 -2.453160 -2.087120 12.994200 -0.242716 4.980390 -88.695600 -3.694790 -70.540200 5.348090 -0.000007 -0.000001 -65.096000 -3.228880 -18.738100 24.328600 0.000019 0.000005 0.083647 0.422936 -11.195500 22.291600 -0.000001 0.000005 19.879900 5.422780 -3.698850 12.994500 -0.242716 -4.980390 89.055400 2.450990 -68.915900 -5.348130 -0.000001 -0.000004 -64.999800 -2.676710 -21.749300 -24.328900 0.000322 -0.000009 -0.077089 -1.332370 -3.262170 -22.291500 -0.000108 -0.000004 14.789300 5.171080 3.421770 -2.192480 -6.469440 -0.000000 -169.211000 -14.777400 -2.207910 39.081100 -0.000007 -0.000012 -0.188281 0.474649 21.637200 40.985400 -0.000006 -0.000013 -5.880940 2.440480 -64.574400 11.754300 -0.000000 0.000003 -0.000050 -0.000562 -16.599400 -2.192510 6.469440 -0.000001 174.686000 19.225300 179.436000 -39.081100 -0.002282 -0.040193 -0.041972 0.131789 18.967500 -40.985400 0.000008 0.000006 -3.271140 2.817840 -63.333400 -11.754300 -0.000006 -0.000006 -0.005205 -0.063432 -19.154100
